# xmcd CD database file
#
# Track frame offsets:
#	150
#	15013
#	34093
#	45125
#	60373
#	83393
#	97768
#	110355
#	134488
#	156705
#	187365
#	222013
#
# Disc length: 3194 seconds
#
# Revision: 0
# Processed by: cddbd v1.4b42PL1 Copyright (c) Steve Scherf et al.
# Submitted via: CdAid 2001.05.15.01
#
DISCID=8b0c780c
DTITLE=Cyclones - Twist This
DYEAR=1900
DGENRE=
TTITLE0=Wheres It At
TTITLE1=Shakin' All Over
TTITLE2=Sunday Shivers
TTITLE3=Oh Babe
TTITLE4=Little Wing
TTITLE5=Been A Long Time
TTITLE6=Look What You Done
TTITLE7=Playin' The Blues
TTITLE8=Hound Dog Man
TTITLE9=Big Talk
TTITLE10=Old Love
TTITLE11=Get Rythm
EXTD=
EXTT0=
EXTT1=
EXTT2=
EXTT3=
EXTT4=
EXTT5=
EXTT6=
EXTT7=
EXTT8=
EXTT9=
EXTT10=
EXTT11=
PLAYORDER=
